<svg xmlns="http://www.w3.org/2000/svg" width="28" height="25" viewBox="0 0 28 25"><g><g><path fill="#febd17" d="M20.398 20.732c.684 0 1.218.535 1.218 1.22 0 .684-.534 1.219-1.218 1.219a1.205 1.205 0 0 1-1.217-1.22c0-.684.534-1.22 1.217-1.22zm-8.53 0c.681 0 1.214.535 1.214 1.22 0 .684-.533 1.219-1.213 1.219s-1.213-.535-1.213-1.22c0-.684.532-1.22 1.213-1.22zm5.486 1.22A3.06 3.06 0 0 0 20.398 25a3.06 3.06 0 0 0 3.045-3.049 3.06 3.06 0 0 0-3.045-3.049 3.06 3.06 0 0 0-3.044 3.05zm-8.525 0A3.06 3.06 0 0 0 11.874 25a3.06 3.06 0 0 0 3.044-3.049 3.06 3.06 0 0 0-3.044-3.049 3.06 3.06 0 0 0-3.045 3.05zM6.945 4.877h19l-1.703 7.317H8.496zM.913 0a.914.914 0 0 0 0 1.83h3.52l3.14 14.833c.125.559.49 1.024.952 1.02h15.222c.483.007.927-.431.927-.915 0-.483-.444-.921-.927-.914H9.267l-.39-1.83h16.088a.942.942 0 0 0 .885-.714l2.131-9.146c.119-.531-.341-1.111-.885-1.115H6.565L6.07.724A.943.943 0 0 0 5.176 0z"/></g></g></svg>